<?xml version="1.0" encoding="utf-8"?>
<!-- Generator: Adobe Illustrator 25.0.0, SVG Export Plug-In . SVG Version: 6.00 Build 0)  -->
<svg version="1.1" id="Layer_1" xmlns="http://www.w3.org/2000/svg" xmlns:xlink="http://www.w3.org/1999/xlink" x="0px" y="0px"
	 viewBox="0 0 430.6 142.1" style="enable-background:new 0 0 430.6 142.1;" xml:space="preserve">
<style type="text/css">
	.st0{fill:#004a82;}
</style>
<g>
	<path class="st0" d="M68.5,40.8c0-4-2.9-5.9-6.6-5.9c-2.4,0-5.7,1.1-8.1,3.2c-1.1,0.9-1.8,2-2.6,3.2c-5.5-4-12.7-6.5-20.2-6.5
		c-19.7,0-28.4,12.1-28.4,31.7v14.9c0,20.3,6.4,33.4,26.5,33.4c6.9,0,13.9-2.5,19.3-7.3v27.8c0,3.9,2.9,6.8,6.7,6.8
		c3.7,0,6.6-2.9,6.6-6.8V55.1c0-6.3,1.2-8,4.3-9.7C67.6,44.4,68.5,42.8,68.5,40.8L68.5,40.8z M48.3,95c-4.6,5.7-11.2,8.2-16.5,8.2
		c-11.6,0-15.8-7.1-15.8-20V65.7c0-12.4,4.9-19,16.7-19c5.7,0,11.2,2.2,15.6,5.9V95L48.3,95z M140.3,43.5C142,38.4,138,35,134,35
		c-2.4,0-4.9,1.4-6,4.5c-6,18.4-13,38.7-20.2,57.7c-7-19-14.1-39.4-19.9-57.9C87,36.4,84.7,35,82.2,35c-3.8,0-7.6,3.2-6.3,8.2
		c6.7,21.2,14.8,43.8,22.9,65c2.1,5.6,5,6.8,8.9,6.8c3.4,0,6.4-1.2,8.7-6.8C125.2,87.1,133.3,64.7,140.3,43.5L140.3,43.5z
		 M201.2,106.4c1.7,5.1-2.3,8.5-6.3,8.5c-2.4,0-4.9-1.4-6-4.5c-6-18.4-13-38.7-20.2-57.7c-7,19-14.1,39.4-19.9,57.9
		c-0.9,2.9-3.2,4.3-5.7,4.3c-3.8,0-7.6-3.2-6.3-8.2c6.7-21.2,14.8-43.8,22.9-65c2.1-5.6,5-6.8,8.9-6.8c3.4,0,6.4,1.2,8.7,6.8
		C186,62.8,194.2,85.2,201.2,106.4L201.2,106.4z M272.7,108.1l-0.2-44.9c0-16.2-5.7-28.3-24.9-28.3c-10.9,0-18.7,3.4-24,9.3
		c-0.6-1.9-1.8-3.6-3.4-5.1c-2.4-2-5.8-3.2-8.3-3.2c-3.8,0-6.6,1.9-6.6,5.9c0,2,0.9,3.6,2.6,4.5c2.9,1.7,4.7,3.6,4.7,9.7v52.1
		c0,3.9,3.1,6.8,6.7,6.8c3.7,0,6.6-2.9,6.6-6.8V57.5c3.7-5.9,9.9-9.7,18.7-9.7c11.8,0,14.4,7,14.4,16.7v43.6c0,3.9,3.1,6.8,6.7,6.8
		C269.7,114.9,272.7,112,272.7,108.1L272.7,108.1z M328.6,107.8c0-3.4-2.6-6.2-6-6.2h-3.2c-12.1,0-14.5-5.9-14.5-21.3l-0.2-32.8H319
		c3.2,0,5.8-2.6,5.8-5.7c0-3.2-2.6-5.9-5.8-5.9h-14.2V20c0-3.7-2.9-6.8-6.6-6.8c-3.8,0-6.7,3.1-6.7,6.8v15.9H287
		c-3.2,0-5.8,2.6-5.8,5.9c0,3.1,2.6,5.7,5.8,5.7h4.4v32.9c0,20.3,5.5,33.6,26.6,33.6h4.6C326,114,328.6,111.2,328.6,107.8
		L328.6,107.8z M393.8,73.8v-6.4c0-17.5-7.6-32.5-30-32.5c-21.4,0-30.1,15.2-30.1,32.8v14.4c0,17.6,8.1,32.8,30.1,32.8
		c8.7,0,16.8-1.7,24.2-5.6c2.8-1.5,3.7-4.3,2.6-7.3c-1.1-2.9-4.3-4.6-7.2-3.1c-5,2.6-10.4,4.3-19.1,4.3c-11.9,0-17.3-7.9-17.3-20.1
		v-4.2h41.8C391.5,79,393.8,77,393.8,73.8L393.8,73.8z M380.8,68.4H347v-2.6c0-11.9,5-19.6,17.1-19.6c12.4,0,16.7,7.6,16.7,19.6
		L380.8,68.4L380.8,68.4z M427.8,109.1c0-2-0.9-3.6-2.6-4.6c-3.1-1.5-4.7-3.2-4.7-9.6v-86c0-3.9-3.1-6.8-6.7-6.8
		c-3.7,0-6.7,2.9-6.7,6.8v88.3c0,6,2.1,11.1,6,14.5c2.4,2,5.8,3.2,8.1,3.2C424.9,114.9,427.8,113.1,427.8,109.1L427.8,109.1z"/>
</g>
</svg>
