<?xml version="1.0" encoding="utf-8"?>
<!-- Generator: Adobe Illustrator 27.5.0, SVG Export Plug-In . SVG Version: 6.00 Build 0)  -->
<svg version="1.1" id="Layer_1" xmlns="http://www.w3.org/2000/svg" xmlns:xlink="http://www.w3.org/1999/xlink" x="0px" y="0px"
	 viewBox="0 0 9000 4000" style="enable-background:new 0 0 9000 4000;" xml:space="preserve">
<g>
	<defs>
		<rect id="SVGID_1_" width="9000" height="4000"/>
	</defs>
	<clipPath id="SVGID_00000183930181819719068700000009804705949781486496_">
		<use xlink:href="#SVGID_1_"  style="overflow:visible;"/>
	</clipPath>
	
		<rect x="23.307" y="23.157" style="clip-path:url(#SVGID_00000183930181819719068700000009804705949781486496_);fill-rule:evenodd;clip-rule:evenodd;fill:#F2F2F2;" width="8953.386" height="3953.686"/>
	
		<path style="opacity:0.25;clip-path:url(#SVGID_00000183930181819719068700000009804705949781486496_);fill-rule:evenodd;clip-rule:evenodd;fill:#ACBAC9;" d="
		M8976.693,3976.843V23.157h-685.317c557.002,435.201,774.706,1306.046,35.929,2401.614
		c-487.087,722.326-456.334,1230.502-314.573,1552.072H8976.693z"/>
	
		<path style="clip-path:url(#SVGID_00000183930181819719068700000009804705949781486496_);fill-rule:evenodd;clip-rule:evenodd;fill:#ACBAC9;" d="
		M719.142,23.157c72.04,699.38,524.467,1641.817,2531.467,1279.255c741.044-133.862,1370.209-313.73,1925.682-472.519
		c1566.112-447.706,2546.973-727.808,3800.402,659.522v7.561C7723.337,107.292,6743.303,387.138,5177.666,834.699
		c-555.541,158.81-1184.799,338.701-1926.173,472.625C1259.934,1667.082,795.601,744.613,716.466,45.562l-0.345,4.194
		c61.946,702.071,497.797,1678.065,2534.488,1310.147c741.044-133.864,1370.209-313.73,1925.682-472.519
		c1566.112-447.706,2546.973-727.807,3800.402,659.522v7.561C7723.337,164.781,6743.303,444.626,5177.666,892.189
		c-555.541,158.809-1184.799,338.701-1926.173,472.625C1236.951,1728.733,785.036,780.604,713.823,78.908l-0.021,0.315
		c52.874,703.75,472.917,1711.004,2536.807,1338.169c741.044-133.864,1370.209-313.73,1925.682-472.519
		c1566.112-447.706,2546.973-727.808,3800.402,659.522v7.561C7723.337,222.271,6743.303,502.116,5177.666,949.679
		c-555.541,158.809-1184.799,338.701-1926.173,472.623C1235.279,1786.526,784.276,836.505,713.637,134.645
		c52.212,703.842,471.08,1713.44,2536.972,1340.237c741.044-133.864,1370.209-313.73,1925.682-472.519
		c1566.112-447.706,2546.973-727.81,3800.402,659.519v7.563C7723.337,279.759,6743.303,559.606,5177.666,1007.168
		c-555.541,158.807-1184.799,338.701-1926.173,472.623C1235.245,1844.014,784.264,893.942,713.63,192.082
		c52.194,703.828,471.034,1713.493,2536.979,1340.29c741.044-133.864,1370.209-313.73,1925.682-472.519
		c1566.112-447.708,2546.973-727.81,3800.402,659.52v7.563C7723.337,337.249,6743.303,617.096,5177.666,1064.658
		c-555.541,158.807-1184.799,338.701-1926.173,472.623C1235.284,1901.51,784.283,951.478,713.637,249.625
		c52.208,703.821,471.073,1713.433,2536.972,1340.237c741.044-133.865,1370.209-313.731,1925.682-472.521
		c1566.112-447.706,2546.973-727.808,3800.402,659.522v7.563c-1253.356-1389.687-2233.391-1109.84-3799.027-662.28
		c-555.541,158.809-1184.799,338.701-1926.173,472.625C1235.279,1959,784.283,1008.965,713.637,307.108
		c52.208,703.842,471.062,1713.451,2536.972,1340.242c741.044-133.862,1370.209-313.73,1925.682-472.519
		c1566.112-447.706,2546.973-727.807,3800.402,659.522v7.561C7723.337,452.229,6743.303,732.073,5177.666,1179.636
		c-555.541,158.809-1184.799,338.701-1926.173,472.625C1235.245,2016.497,784.264,1066.409,713.63,364.549
		c52.187,703.831,471.022,1713.5,2536.979,1340.29c741.044-133.864,1370.209-313.73,1925.682-472.519
		c1566.112-447.706,2546.973-727.808,3800.402,659.522v7.561C7723.337,509.719,6743.303,789.563,5177.666,1237.126
		c-555.541,158.809-1184.799,338.701-1926.173,472.625C1235.258,2073.98,784.264,1123.931,713.63,422.071
		c52.208,703.838,471.055,1713.468,2536.979,1340.258c741.044-133.864,1370.209-313.73,1925.682-472.519
		c1566.112-447.706,2546.973-727.808,3800.402,659.519v7.563C7723.337,567.208,6743.303,847.053,5177.666,1294.615
		c-555.541,158.809-1184.799,338.701-1926.173,472.623C975.072,2178.463,693.837,914.264,702.671,223.549
		c-0.231-19.554-0.238-38.792,0-57.54c-0.231-19.517-0.238-38.724,0-57.437c-0.231-19.549-0.238-38.788,0-57.536
		c-0.112-9.374-0.172-18.676-0.18-27.879H719.142z M725.894,23.157c91.014,692.12,572.207,1574.483,2524.715,1221.768
		c741.044-133.864,1370.209-313.73,1925.682-472.519c1566.112-447.708,2546.973-727.81,3800.402,659.52v7.563
		C7723.337,49.802,6743.303,329.649,5177.666,777.209c-555.541,158.809-1184.799,338.703-1926.173,472.625
		C1293.034,1603.626,811.569,717.482,720.853,23.157H725.894z M734.357,23.157c110.172,682.214,617.404,1507.29,2516.252,1164.278
		c741.044-133.864,1370.209-313.73,1925.682-472.519c1566.112-447.706,2546.973-727.81,3800.402,659.519v7.563
		C7723.337-7.688,6743.303,272.159,5177.666,719.721c-555.541,158.807-1184.799,338.701-1926.173,472.623
		C1346.687,1536.441,839.12,707.65,729.262,23.157H734.357z M744.603,23.157c129.406,669.938,660.184,1440.232,2506.006,1106.788
		c741.044-133.864,1370.209-313.731,1925.682-472.519c1566.112-447.706,2546.973-727.807,3800.402,659.52v7.563
		C7723.337-65.178,6743.303,214.669,5177.666,662.231c-555.541,158.807-1184.799,338.701-1926.173,472.623
		C1399.706,1469.361,868.519,695.399,739.438,23.157H744.603z M756.701,23.157c148.657,655.451,700.662,1373.236,2493.908,1049.298
		c741.044-133.864,1370.209-313.73,1925.682-472.519c1566.112-447.706,2546.973-727.807,3800.402,659.522v7.561
		C7723.337-122.666,6743.303,157.179,5177.666,604.741c-555.541,158.809-1184.799,338.701-1926.173,472.623
		C1452.289,1402.386,899.788,680.991,751.481,23.157H756.701z M770.811,23.157c167.865,638.963,738.883,1306.301,2479.798,991.808
		c741.044-133.864,1370.209-313.73,1925.682-472.519c1566.112-447.706,2546.973-727.808,3800.402,659.522v7.561
		C7723.337-180.155,6743.303,99.689,5177.666,547.251c-555.541,158.81-1184.799,338.701-1926.173,472.626
		C1504.548,1335.444,933.001,664.554,765.5,23.157H770.811z M787.038,23.157c186.932,620.562,774.811,1239.386,2463.571,934.321
		c741.044-133.864,1370.209-313.733,1925.682-472.521C6742.403,37.25,7723.264-242.851,8976.693,1144.479v7.561
		C7723.337-237.645,6743.303,42.202,5177.666,489.762c-555.541,158.809-1184.799,338.7-1926.173,472.625
		C1556.728,1268.543,968.201,646.234,781.628,23.157H787.038z M805.558,23.157c205.806,600.444,808.457,1172.464,2445.052,876.831
		c741.044-133.864,1370.209-313.73,1925.682-472.519c1566.112-447.708,2546.973-727.81,3800.402,659.52v7.563
		C7723.337-295.135,6743.303-15.288,5177.666,432.274c-555.541,158.807-1184.799,338.701-1926.173,472.623
		C1608.889,1201.633,1005.497,626.155,800.041,23.157H805.558z M7304.332,23.157c556.505,71.801,1084.469,355.645,1672.362,1006.342
		v7.563C8372.958,367.654,7832.586,85.656,7259.691,23.157H7304.332z M826.56,23.157
		c224.438,578.651,839.807,1105.521,2424.049,819.341c741.044-133.864,1370.209-313.73,1925.682-472.519
		c558.064-159.536,1041.73-297.715,1489.984-346.822h49.833c-461.776,43.862-960.142,186.313-1538.441,351.627
		c-555.541,158.807-1184.799,338.701-1926.173,472.623c-1590.33,287.29-2206.527-242.974-2430.608-824.25H826.56z M7593.092,23.157
		c453.539,124.208,898.137,411.525,1383.601,948.852v7.563c-493.073-546.703-943.89-835.041-1404.657-956.415H7593.092z
		 M850.237,23.157c242.731,555.282,868.799,1038.521,2400.372,761.851c741.044-133.864,1370.209-313.73,1925.682-472.519
		c408.13-116.673,776.475-221.97,1120.296-289.332h26.975c-351.095,66.996-727.558,174.549-1145.896,294.137
		c-555.541,158.807-1184.799,338.701-1926.173,472.623C1713.804,1067.703,1086.778,581.131,844.392,23.157H850.237z
		 M7771.368,23.157c392.706,146.376,783.598,424.581,1205.326,891.364v7.561c-427.494-473.996-823.238-753.797-1221.228-898.925
		H7771.368z M876.929,23.157c260.484,530.409,895.061,971.474,2373.681,704.361c741.044-133.864,1370.209-313.73,1925.682-472.519
		c305.726-87.395,589.095-168.378,856.595-231.842h22.042c-273.553,64.127-563.607,146.988-877.262,236.647
		C4622.125,418.614,3992.867,598.505,3251.493,732.43C1766.963,1000.596,1131.23,556.311,870.918,23.157H876.929z"/>
	
		<path style="opacity:0.25;clip-path:url(#SVGID_00000183930181819719068700000009804705949781486496_);fill-rule:evenodd;clip-rule:evenodd;fill:#ACBAC9;" d="
		M2342.072,2959.696C1058.668,3177.163,334.417,2501.507,23.307,2093.462v1883.381h7284.751
		c-33.292-40.835-66.458-83.451-99.465-127.911C5950.011,2153.826,4146.039,2654.027,2342.072,2959.696"/>
	
		<path style="clip-path:url(#SVGID_00000183930181819719068700000009804705949781486496_);fill-rule:evenodd;clip-rule:evenodd;fill:#ACBAC9;" d="
		M23.307,3508.997v5.298c209.717,46.696,465.444,45.458,777.242-31.989c495.121-122.985,990.243-145.85,1424.153-74.003
		c341.376,56.531,644.863,171.698,880.604,342.855c91.947,66.757,173.598,142.036,243.175,225.685h6.5
		c-70.413-85.237-153.249-161.868-246.7-229.714c-236.383-171.629-540.61-287.093-882.746-343.749
		c-434.57-71.958-930.411-49.068-1426.202,74.082C487.866,3554.83,232.57,3555.867,23.307,3508.997 M23.307,3437.972v5.284
		c215.147,53.662,480.296,56.177,806.979-24.97c495.122-122.987,990.243-145.85,1424.153-74.005
		c341.376,56.531,644.862,171.701,880.604,342.857c114.832,83.373,213.588,180.049,292.844,289.705h6.191
		c-79.916-111.296-179.777-209.313-296.061-293.737c-236.383-171.627-540.61-287.093-882.746-343.749
		c-434.57-71.956-930.411-49.068-1426.202,74.084C502.71,3494.503,237.972,3491.826,23.307,3437.972z M23.307,3365.956v5.356
		c220.315,61.114,494.772,67.887,836.717-17.046c495.121-122.988,990.243-145.851,1424.153-74.006
		c341.376,56.531,644.862,171.701,880.604,342.855c136.687,99.24,250.612,217.33,335.958,353.728h5.913
		c-85.861-138.065-200.804-257.5-338.899-357.757c-236.383-171.629-540.607-287.093-882.744-343.749
		c-434.572-71.956-930.414-49.068-1426.202,74.084C517.161,3434.283,243.125,3427.28,23.307,3365.956z M23.307,3293.33v5.435
		c225.184,68.971,509.008,80.267,866.452-8.52c495.122-122.987,990.243-145.851,1424.153-74.006
		c341.376,56.531,644.865,171.701,880.604,342.855c157.644,114.454,285.008,253.971,373.169,417.748h5.715
		c-88.564-165.465-216.9-306.332-375.911-421.777c-236.383-171.629-540.61-287.093-882.746-343.749
		c-434.57-71.958-930.411-49.068-1426.199,74.084C531.364,3374.123,247.983,3362.549,23.307,3293.33z M23.307,3219.704v5.423
		c229.782,77.347,522.81,93.842,896.189,1.095c495.121-122.988,990.243-145.851,1424.153-74.006
		c341.376,56.531,644.863,171.701,880.604,342.858c177.8,129.092,317.083,290.066,405.04,481.768h5.524
		c-88.266-193.416-228.456-355.742-407.589-485.8c-236.383-171.627-540.61-287.093-882.746-343.749
		c-434.57-71.956-930.411-49.065-1426.202,74.084C545.159,3314.06,252.553,3297.313,23.307,3219.704z M23.307,3145.037v5.521
		c234.089,86.196,536.209,108.447,925.927,11.646c495.121-122.987,990.243-145.851,1424.153-74.005
		c341.376,56.531,644.862,171.701,880.604,342.857c197.257,143.21,347.098,325.67,432.048,545.788h5.384
		c-85.173-221.857-235.893-405.662-434.46-549.82c-236.38-171.629-540.607-287.093-882.744-343.749
		c-434.572-71.956-930.413-49.068-1426.202,74.084C558.524,3254.109,256.842,3231.533,23.307,3145.037z M23.307,3069.581v5.62
		c238.047,95.502,549.278,123.925,955.662,22.981c495.124-122.987,990.245-145.85,1424.155-74.005
		c341.376,56.531,644.863,171.701,880.604,342.855c216.073,156.878,375.255,360.836,454.569,609.811h5.277
		c-79.477-250.727-239.513-456.036-456.875-613.84c-236.383-171.629-540.607-287.093-882.744-343.749
		c-434.572-71.956-930.414-49.068-1426.202,74.084C571.548,3194.236,260.785,3165.427,23.307,3069.581z M23.307,2993.2v5.62
		c241.68,105.309,561.903,140.533,985.4,35.34c495.122-122.988,990.243-145.851,1424.153-74.003
		c341.376,56.531,644.865,171.698,880.604,342.855c234.315,170.119,401.744,395.607,472.938,673.831h5.186
		c-71.327-279.991-239.566-506.824-475.15-677.863c-236.383-171.627-540.61-287.093-882.746-343.747
		c-434.57-71.958-930.411-49.068-1426.199,74.082C584.173,3134.47,264.374,3098.864,23.307,2993.2z M23.307,2915.441v5.724
		c244.971,115.661,573.974,158.559,1015.137,48.975c495.121-122.988,990.243-145.851,1424.153-74.006
		c341.376,56.531,644.863,171.701,880.604,342.857c235.597,171.05,403.585,398.066,474.112,678.393
		c4.923,19.561,9.362,39.379,13.324,59.458h5.121c-4.03-20.487-8.549-40.717-13.569-60.667
		c-70.83-281.533-239.487-509.494-476.014-681.216c-236.383-171.627-540.61-287.093-882.746-343.749
		c-434.57-71.956-930.411-49.067-1426.202,74.084C596.19,3074.847,267.644,3031.509,23.307,2915.441z M23.307,2836.69v5.843
		c247.885,126.505,585.595,177.666,1044.875,63.587c495.122-122.988,990.243-145.851,1424.153-74.006
		c341.376,56.531,644.862,171.701,880.604,342.855c235.595,171.052,403.585,398.069,474.112,678.393
		c10.08,40.069,18.168,81.233,24.181,123.481h5.079c-6.044-42.66-14.203-84.232-24.384-124.688
		c-70.832-281.533-239.487-509.496-476.017-681.215c-236.38-171.629-540.607-287.093-882.744-343.749
		c-434.572-71.956-930.414-49.068-1426.202,74.084C607.75,3015.34,270.525,2963.649,23.307,2836.69z M23.307,2756.849v5.972
		c250.395,137.843,596.726,197.977,1074.61,79.276c495.121-122.985,990.243-145.851,1424.155-74.003
		c341.374,56.531,644.862,171.701,880.604,342.855c235.595,171.05,403.585,398.069,474.11,678.393
		c15.11,60.056,25.74,122.569,31.62,187.501h5.048c-5.894-65.354-16.583-128.265-31.793-188.708
		c-70.83-281.535-239.487-509.496-476.014-681.216c-236.383-171.629-540.608-287.093-882.744-343.749
		c-434.572-71.958-930.414-49.068-1426.202,74.084C618.824,2955.954,273.003,2895.19,23.307,2756.849z M23.307,2675.834v6.111
		c252.476,149.683,607.317,219.592,1104.347,96.132c495.121-122.988,990.243-145.851,1424.153-74.006
		c341.376,56.531,644.865,171.701,880.604,342.858c235.597,171.05,403.585,398.066,474.112,678.393
		c20.019,79.559,32.182,163.415,35.828,251.521h5.034c-3.652-88.525-15.875-172.789-35.986-252.73
		c-70.83-281.533-239.487-509.494-476.014-681.215c-236.383-171.627-540.61-287.093-882.746-343.749
		c-434.57-71.956-930.411-49.068-1426.199,74.084C629.349,2896.707,275.044,2826.068,23.307,2675.834z M23.307,2593.438v6.111
		c254.129,162.112,617.181,242.905,1134.085,114.507c495.122-122.988,990.243-145.85,1424.153-74.005
		c341.376,56.531,644.863,171.701,880.604,342.855c235.597,171.052,403.585,398.069,474.112,678.395
		c24.808,98.608,37.56,203.831,36.977,315.542h5.023c0.587-112.129-12.215-217.756-37.123-316.75
		c-70.83-281.533-239.487-509.496-476.014-681.216c-236.383-171.629-540.61-287.093-882.746-343.749
		c-434.57-71.956-930.411-49.068-1426.202,74.084C639.206,2837.621,276.641,2756.119,23.307,2593.438z M23.307,2509.529v6.255
		c255.285,175.068,626.37,267.75,1163.822,134.254c495.121-122.988,990.243-145.851,1424.153-74.006
		c341.376,56.531,644.862,171.701,880.604,342.855c235.594,171.05,403.585,398.069,474.112,678.393
		c29.497,117.238,41.953,243.835,35.205,379.564h5.03c6.745-136.143-5.762-263.135-35.359-380.771
		c-70.833-281.533-239.487-509.496-476.017-681.216c-236.38-171.629-540.607-287.093-882.743-343.749
		c-434.572-71.958-930.414-49.068-1426.202,74.084C648.323,2778.728,277.76,2685.219,23.307,2509.529z M23.307,2424.174v6.419
		c255.937,188.552,634.847,294.202,1193.557,155.421c495.121-122.987,990.243-145.85,1424.153-74.005
		c341.376,56.531,644.865,171.701,880.606,342.857c235.595,171.05,403.585,398.066,474.11,678.393
		c34.084,135.486,45.423,283.45,30.656,443.584h5.042c14.76-160.528,3.37-308.912-30.821-444.793
		c-70.83-281.533-239.487-509.494-476.014-681.215c-236.383-171.627-540.608-287.093-882.744-343.749
		c-434.572-71.956-930.413-49.065-1426.202,74.084C656.707,2720.01,278.354,2613.4,23.307,2424.174z M23.307,2337.27v6.598
		c256.023,202.546,642.518,322.382,1223.295,178.127c495.121-122.988,990.243-145.851,1424.153-74.006
		c341.376,56.531,644.862,171.701,880.604,342.857c235.597,171.05,403.585,398.066,474.113,678.393
		c38.582,153.36,48.017,322.715,23.44,507.604h5.069c24.556-185.283,15.056-355.045-23.634-508.813
		c-70.83-281.533-239.487-509.496-476.014-681.216c-236.383-171.629-540.61-287.093-882.746-343.749
		c-434.57-71.956-930.411-49.068-1426.199,74.084C664.284,2661.49,278.38,2540.552,23.307,2337.27z M23.307,2248.687v6.781
		c255.508,217.052,649.316,352.466,1253.032,202.507c495.121-122.988,990.243-145.851,1424.153-74.006
		c341.376,56.531,644.863,171.701,880.604,342.855c235.597,171.05,403.585,398.069,474.112,678.393
		c42.5,168.931,49.637,357.273,14.898,564.399c-0.41,2.429-0.753,4.812-1.142,7.228h5.085c0.352-2.14,0.648-4.247,1.011-6.401
		c34.858-207.835,27.689-396.86-14.977-566.432c-70.83-281.533-239.488-509.496-476.015-681.216
		c-236.382-171.629-540.61-287.093-882.746-343.749c-434.57-71.956-930.411-49.068-1426.202,74.084
		C670.978,2603.195,277.799,2466.533,23.307,2248.687z M23.307,2158.298v6.984c254.345,232.065,655.122,384.571,1282.77,228.67
		c495.121-122.988,990.243-145.851,1424.153-74.003c341.376,56.531,644.862,171.699,880.604,342.855
		c235.595,171.05,403.585,398.069,474.113,678.393c42.501,168.931,49.635,357.271,14.898,564.399
		c-4.09,24.398-7.341,48.142-9.772,71.248h5.063c2.403-22.838,5.622-46.31,9.665-70.421
		c34.856-207.838,27.689-396.86-14.977-566.433c-70.833-281.535-239.487-509.496-476.017-681.218
		c-236.38-171.627-540.607-287.093-882.744-343.747c-434.572-71.958-930.414-49.068-1426.202,74.082
		C676.667,2545.146,276.55,2391.196,23.307,2158.298z M23.307,2065.951c251.28,248.416,657.945,421.423,1311.291,259.135
		c495.788-123.152,991.63-146.04,1426.202-74.084c342.136,56.656,646.361,172.122,882.744,343.749
		c236.527,171.722,405.184,399.683,476.014,681.216c42.666,169.575,49.835,358.597,14.977,566.435
		c-7.927,47.248-12.63,92.017-14.362,134.441h-5.06c1.75-42.695,6.493-87.731,14.467-135.27
		c34.739-207.126,27.605-395.468-14.897-564.397c-70.525-280.326-238.516-507.343-474.111-678.393
		c-235.742-171.157-539.23-286.326-880.606-342.857c-433.91-71.845-929.031-48.982-1424.153,74.005
		c-652.67,162.116-1060.043-9.242-1312.505-256.785V2065.951z"/>
</g>
</svg>
